<svg width="168" height="224" viewBox="0 0 168 224" fill="none" xmlns="http://www.w3.org/2000/svg">
<path d="M57.8295 0.972751C57.8295 0.972751 30.4292 4.06458 28.6632 46.4947C27.1923 81.8507 24.1807 101.557 38.5637 108.932C43.7066 111.568 49.75 111.798 55.2431 109.997L113.961 90.691C113.961 90.691 114.846 27.0482 94.5151 11.579C74.1837 -3.89013 57.8345 0.972751 57.8345 0.972751H57.8295Z" fill="#615427"/>
<path d="M90.1978 98.5056L60.4811 108.276V65.501H87.4412L90.1978 98.5056Z" fill="#F6A6A9"/>
<path d="M130.23 212.223C126.228 213.844 122.146 215.3 117.988 216.581C114.862 217.551 111.69 218.417 108.483 219.187C96.7814 222.009 84.5596 223.5 71.9975 223.5C68.4655 223.5 64.9636 223.385 61.4966 223.149C57.9496 222.914 54.4377 222.559 50.9657 222.084C49.5549 221.894 48.1542 221.689 46.7584 221.458C42.7811 220.813 38.8489 220.008 34.9768 219.062C33.671 218.747 32.3703 218.412 31.0746 218.051C30.6293 217.936 30.1841 217.811 29.7438 217.686C27.9178 217.171 26.1018 216.626 24.3008 216.04C24.1807 216.005 24.0556 215.965 23.9356 215.925C22.3247 215.405 20.7238 214.855 19.1329 214.279C17.7021 213.764 16.2813 213.224 14.8655 212.663L45.7378 111.048L47.0235 106.821L51.5861 91.8066L51.6211 91.6865L51.6561 91.5765H105.571L105.932 93.3325L114.772 136.578L121.14 167.747L127.404 198.38L129.98 210.987L130.23 212.223Z" fill="#E6E6E6"/>
<path d="M60.1609 91.6015L56.5338 106.625L56.0286 108.732L55.7634 109.827L39.6744 176.522L29.7438 217.686C27.9178 217.171 26.1018 216.626 24.3008 216.04C24.1807 216.005 24.0556 215.965 23.9356 215.925C22.3247 215.405 20.7238 214.855 19.1329 214.279C17.7021 213.764 16.2813 213.224 14.8655 212.663C9.9327 210.717 5.12502 208.521 0.457397 206.099C10.8782 154.519 21.3391 103.804 23.0401 99.5562C23.7855 97.6901 25.8716 96.2593 28.6982 95.1586C29.5137 94.8384 30.3942 94.5482 31.3197 94.2831C37.3881 92.5521 45.4876 91.9167 51.5611 91.6915H51.6211C54.0424 91.6065 56.1386 91.5815 57.6495 91.5815C59.1603 91.5815 60.1609 91.6065 60.1609 91.6065V91.6015Z" fill="#E6E6E6"/>
<path d="M64.1581 77.343C80.5121 77.343 93.7697 64.085 93.7697 47.7305C93.7697 31.3759 80.5121 18.1179 64.1581 18.1179C47.8041 18.1179 34.5465 31.3759 34.5465 47.7305C34.5465 64.085 47.8041 77.343 64.1581 77.343Z" fill="#F6A6A9"/>
<path d="M56.0636 12.0243C56.0636 12.0243 39.7695 78.1885 57.8896 109.127L32.3653 103.704C32.3653 103.704 22.4748 31.2807 42.3659 18.1179L56.0686 12.0243H56.0636Z" fill="#615427"/>
<path opacity="0.1" d="M50.9657 222.084C49.5549 221.894 48.1542 221.689 46.7584 221.458C42.7811 220.813 38.8489 220.008 34.9768 219.062C33.671 218.747 32.3703 218.412 31.0746 218.051L32.7405 205.274L37.188 171.139L39.1891 178.533L41.0302 185.342L50.9657 222.084Z" fill="#DD0B35"/>
<path opacity="0.1" d="M134.898 210.247C133.807 210.732 132.711 211.202 131.606 211.658C131.441 211.728 131.276 211.798 131.111 211.868C130.82 211.988 130.53 212.108 130.235 212.223C126.233 213.844 122.151 215.3 117.993 216.581C108.118 209.591 100.508 199.856 96.116 188.579L93.7747 182.57L78.7762 139.125L112.005 173.99L118.078 183.606L127.409 198.375L134.903 210.242H134.898V210.247Z" fill="#DD0B35"/>
<path d="M167.426 190.78C158.751 197.534 149.346 203.388 139.34 208.201C138.095 208.801 136.834 209.381 135.568 209.952C135.343 210.052 135.123 210.152 134.898 210.247C133.807 210.732 132.712 211.202 131.606 211.658C131.061 211.448 130.52 211.222 129.985 210.987C124.497 208.586 119.594 204.934 115.267 200.666C109.454 194.918 104.691 188.044 100.954 181.55C99.1127 178.353 97.5218 175.246 96.1761 172.414L96.1561 172.369C92.529 164.7 90.733 159.056 90.733 159.056L85.9053 139.23L84.5796 133.792L77.0354 102.833L74.2938 91.5765L78.3861 91.3964L89.5674 90.9061L101.899 90.3608C104.741 90.5759 107.512 91.1062 110.179 91.9367C118.739 94.5633 126.183 100.177 131.071 107.901C144.508 129.149 166.025 166.626 167.431 190.78H167.426Z" fill="#E6E6E6"/>
<path d="M26.9272 77.7833C33.4159 75.4469 50.5905 75.4369 58.2948 78.0385C59.7907 78.5438 60.6962 80.0647 60.436 81.6206L60.1309 83.4667C60.8013 83.3666 61.4566 83.1765 62.077 82.8913C63.913 82.0508 67.53 80.9102 71.1821 82.7312C73.7335 84.002 75.5295 86.3984 76.1599 89.1851C77.6657 95.849 73.8686 99.5362 73.8686 99.5362L68.8107 104.284C64.5734 108.256 59.9508 111.798 55.013 114.85L54.913 114.91L56.7139 104.074C57.7295 105.86 60.0258 106.445 61.7718 105.365C66.1843 102.633 73.3933 97.1598 72.5178 90.9461C71.9075 86.6135 69.5011 85.693 67.1898 85.8881C64.6034 86.1082 62.3471 87.7342 61.2415 90.0806C60.9763 90.6409 60.5411 91.1012 60.0008 91.4014L58.7001 92.1118L54.8879 115.08C54.7178 116.111 54.0575 117.002 53.1219 117.462C44.1569 121.859 34.4815 119.578 31.1346 118.552C30.3692 118.317 29.7138 117.812 29.3036 117.122L28.5832 115.926C28.333 115.516 28.1829 115.05 28.1329 114.575L24.8061 81.1453C24.661 79.6694 25.5365 78.2886 26.9323 77.7833H26.9272Z" fill="#573996"/>
<path d="M57.5294 79.5594C57.5294 80.3448 50.7806 80.9802 42.4559 80.9802C34.1312 80.9802 27.3824 80.3448 27.3824 79.5594C27.3824 78.7739 34.1312 78.1385 42.4559 78.1385C50.7806 78.1385 57.5294 78.7739 57.5294 79.5594Z" fill="#DEDFE0"/>
<path d="M64.8185 110.938C59.1453 102.783 58.9402 93.1924 64.3582 89.5103C69.7763 85.8281 78.7613 89.4502 84.4345 97.6101C86.7458 100.837 88.2166 104.579 88.7269 108.527L112.3 143.382L95.0004 154.339L73.5984 118.818C70.0514 116.937 67.0397 114.235 64.8185 110.943V110.938Z" fill="#F6A6A9"/>
<path d="M78.7712 139.13L98.2522 121.199L136.769 157.065L100.949 181.55L78.7712 139.13Z" fill="#E6E6E6"/>
<path opacity="0.1" d="M133.367 162.038L134.898 173.8L124.692 162.038V150.176L133.367 162.038Z" fill="#DD0B35"/>
</svg>
