<svg width="215" height="29" viewBox="0 0 215 29" fill="none" xmlns="http://www.w3.org/2000/svg">
<path d="M0.988636 15.2159V11.9432L16.5341 4.76136V8.79545L5.48864 13.5341L5.61364 13.3182V13.8409L5.48864 13.625L16.5341 18.3636V22.3977L0.988636 15.2159ZM52.5647 9.57955H48.3147C48.1934 8.88258 47.97 8.26515 47.6442 7.72727C47.3184 7.18182 46.9131 6.7197 46.4283 6.34091C45.9434 5.96212 45.3904 5.67803 44.7692 5.48864C44.1556 5.29167 43.4927 5.19318 42.7806 5.19318C41.5154 5.19318 40.3942 5.51136 39.4169 6.14773C38.4397 6.77651 37.6745 7.70076 37.1215 8.92045C36.5684 10.1326 36.2919 11.6136 36.2919 13.3636C36.2919 15.1439 36.5684 16.6439 37.1215 17.8636C37.6821 19.0758 38.4472 19.9924 39.4169 20.6136C40.3942 21.2273 41.5116 21.5341 42.7692 21.5341C43.4662 21.5341 44.1177 21.4432 44.7238 21.2614C45.3374 21.072 45.8866 20.7955 46.3715 20.4318C46.8639 20.0682 47.2768 19.6212 47.6101 19.0909C47.951 18.5606 48.1859 17.9545 48.3147 17.2727L52.5647 17.2955C52.4056 18.4015 52.0609 19.4394 51.5306 20.4091C51.0078 21.3788 50.3222 22.2348 49.4738 22.9773C48.6253 23.7121 47.6328 24.2879 46.4965 24.7045C45.3601 25.1136 44.0988 25.3182 42.7124 25.3182C40.6669 25.3182 38.8412 24.8447 37.2351 23.8977C35.6291 22.9508 34.3639 21.5833 33.4397 19.7955C32.5154 18.0076 32.0533 15.8636 32.0533 13.3636C32.0533 10.8561 32.5192 8.71212 33.451 6.93182C34.3828 5.14394 35.6518 3.77651 37.2578 2.82954C38.8639 1.88257 40.6821 1.40909 42.7124 1.40909C44.0078 1.40909 45.2124 1.59091 46.326 1.95454C47.4397 2.31818 48.4321 2.85227 49.3033 3.55682C50.1745 4.25379 50.8904 5.10985 51.451 6.125C52.0192 7.13258 52.3904 8.28409 52.5647 9.57955ZM62.7064 25.3523C61.6003 25.3523 60.6041 25.1553 59.7177 24.7614C58.8389 24.3598 58.142 23.7689 57.6268 22.9886C57.1192 22.2083 56.8655 21.2462 56.8655 20.1023C56.8655 19.1174 57.0473 18.303 57.4109 17.6591C57.7745 17.0152 58.2708 16.5 58.8995 16.1136C59.5283 15.7273 60.2367 15.4356 61.0245 15.2386C61.82 15.0341 62.642 14.8864 63.4905 14.7955C64.5132 14.6894 65.3427 14.5947 65.9791 14.5114C66.6155 14.4205 67.0776 14.2841 67.3655 14.1023C67.6609 13.9129 67.8086 13.6212 67.8086 13.2273V13.1591C67.8086 12.303 67.5548 11.6402 67.0473 11.1705C66.5397 10.7008 65.8086 10.4659 64.8541 10.4659C63.8465 10.4659 63.0473 10.6856 62.4564 11.125C61.873 11.5644 61.4791 12.0833 61.2745 12.6818L57.4336 12.1364C57.7367 11.0758 58.2367 10.1894 58.9336 9.47727C59.6306 8.75757 60.4829 8.2197 61.4905 7.86364C62.498 7.5 63.6117 7.31818 64.8314 7.31818C65.6723 7.31818 66.5094 7.41667 67.3427 7.61364C68.1761 7.81061 68.9374 8.13636 69.6268 8.59091C70.3162 9.03788 70.8692 9.64773 71.2859 10.4205C71.7102 11.1932 71.9223 12.1591 71.9223 13.3182V25H67.9677V22.6023H67.8314C67.5814 23.0871 67.2291 23.5417 66.7745 23.9659C66.3276 24.3826 65.7632 24.7197 65.0814 24.9773C64.4071 25.2273 63.6155 25.3523 62.7064 25.3523ZM63.7745 22.3295C64.6003 22.3295 65.3162 22.1667 65.9223 21.8409C66.5283 21.5076 66.9942 21.0682 67.32 20.5227C67.6533 19.9773 67.82 19.3826 67.82 18.7386V16.6818C67.6912 16.7879 67.4715 16.8864 67.1609 16.9773C66.8579 17.0682 66.517 17.1477 66.1382 17.2159C65.7594 17.2841 65.3844 17.3447 65.0132 17.3977C64.642 17.4508 64.32 17.4962 64.0473 17.5341C63.4336 17.6174 62.8844 17.7538 62.3995 17.9432C61.9147 18.1326 61.5321 18.3977 61.2518 18.7386C60.9715 19.072 60.8314 19.5038 60.8314 20.0341C60.8314 20.7917 61.1079 21.3636 61.6609 21.75C62.2139 22.1364 62.9185 22.3295 63.7745 22.3295ZM86.2145 7.54545V10.7273H76.1805V7.54545H86.2145ZM78.6577 3.36364H82.7714V19.75C82.7714 20.303 82.8547 20.7273 83.0214 21.0227C83.1956 21.3106 83.4229 21.5076 83.7032 21.6136C83.9835 21.7197 84.2941 21.7727 84.635 21.7727C84.8926 21.7727 85.1274 21.7538 85.3395 21.7159C85.5592 21.678 85.7259 21.6439 85.8395 21.6136L86.5327 24.8295C86.313 24.9053 85.9986 24.9886 85.5895 25.0795C85.188 25.1705 84.6956 25.2235 84.1123 25.2386C83.082 25.2689 82.1539 25.1136 81.3282 24.7727C80.5024 24.4242 79.8471 23.8864 79.3623 23.1591C78.885 22.4318 78.6502 21.5227 78.6577 20.4318V3.36364ZM96.1176 25.3523C95.0116 25.3523 94.0153 25.1553 93.129 24.7614C92.2502 24.3598 91.5532 23.7689 91.0381 22.9886C90.5305 22.2083 90.2767 21.2462 90.2767 20.1023C90.2767 19.1174 90.4585 18.303 90.8222 17.6591C91.1858 17.0152 91.682 16.5 92.3108 16.1136C92.9396 15.7273 93.6479 15.4356 94.4358 15.2386C95.2312 15.0341 96.0532 14.8864 96.9017 14.7955C97.9244 14.6894 98.754 14.5947 99.3903 14.5114C100.027 14.4205 100.489 14.2841 100.777 14.1023C101.072 13.9129 101.22 13.6212 101.22 13.2273V13.1591C101.22 12.303 100.966 11.6402 100.459 11.1705C99.9509 10.7008 99.2199 10.4659 98.2653 10.4659C97.2578 10.4659 96.4585 10.6856 95.8676 11.125C95.2843 11.5644 94.8903 12.0833 94.6858 12.6818L90.8449 12.1364C91.1479 11.0758 91.6479 10.1894 92.3449 9.47727C93.0419 8.75757 93.8941 8.2197 94.9017 7.86364C95.9093 7.5 97.0229 7.31818 98.2426 7.31818C99.0835 7.31818 99.9206 7.41667 100.754 7.61364C101.587 7.81061 102.349 8.13636 103.038 8.59091C103.727 9.03788 104.28 9.64773 104.697 10.4205C105.121 11.1932 105.334 12.1591 105.334 13.3182V25H101.379V22.6023H101.243C100.993 23.0871 100.64 23.5417 100.186 23.9659C99.7388 24.3826 99.1744 24.7197 98.4926 24.9773C97.8184 25.2273 97.0267 25.3523 96.1176 25.3523ZM97.1858 22.3295C98.0116 22.3295 98.7275 22.1667 99.3335 21.8409C99.9396 21.5076 100.405 21.0682 100.731 20.5227C101.065 19.9773 101.231 19.3826 101.231 18.7386V16.6818C101.102 16.7879 100.883 16.8864 100.572 16.9773C100.269 17.0682 99.9282 17.1477 99.5494 17.2159C99.1706 17.2841 98.7956 17.3447 98.4244 17.3977C98.0532 17.4508 97.7312 17.4962 97.4585 17.5341C96.8449 17.6174 96.2956 17.7538 95.8108 17.9432C95.3259 18.1326 94.9434 18.3977 94.6631 18.7386C94.3828 19.072 94.2426 19.5038 94.2426 20.0341C94.2426 20.7917 94.5191 21.3636 95.0722 21.75C95.6252 22.1364 96.3297 22.3295 97.1858 22.3295ZM110.91 25V7.54545H114.899V10.4545H115.08C115.399 9.44697 115.944 8.67045 116.717 8.125C117.497 7.57197 118.387 7.29545 119.387 7.29545C119.614 7.29545 119.868 7.30682 120.149 7.32954C120.436 7.3447 120.675 7.37121 120.864 7.40909V11.1932C120.69 11.1326 120.414 11.0795 120.035 11.0341C119.664 10.9811 119.304 10.9545 118.955 10.9545C118.205 10.9545 117.531 11.1174 116.933 11.4432C116.342 11.7614 115.876 12.2045 115.535 12.7727C115.194 13.3409 115.024 13.9962 115.024 14.7386V25H110.91ZM125.037 25V7.54545H129.151V25H125.037ZM127.106 5.06818C126.454 5.06818 125.893 4.85227 125.424 4.42045C124.954 3.98106 124.719 3.45454 124.719 2.84091C124.719 2.2197 124.954 1.69318 125.424 1.26136C125.893 0.821969 126.454 0.602272 127.106 0.602272C127.765 0.602272 128.325 0.821969 128.787 1.26136C129.257 1.69318 129.492 2.2197 129.492 2.84091C129.492 3.45454 129.257 3.98106 128.787 4.42045C128.325 4.85227 127.765 5.06818 127.106 5.06818ZM138.935 14.7727V25H134.821V7.54545H138.753V10.5114H138.958C139.359 9.53409 139.999 8.75758 140.878 8.18182C141.764 7.60606 142.859 7.31818 144.162 7.31818C145.367 7.31818 146.416 7.57576 147.31 8.09091C148.211 8.60606 148.908 9.35227 149.401 10.3295C149.901 11.3068 150.147 12.4924 150.139 13.8864V25H146.026V14.5227C146.026 13.3561 145.723 12.4432 145.117 11.7841C144.518 11.125 143.689 10.7955 142.628 10.7955C141.908 10.7955 141.268 10.9545 140.708 11.2727C140.154 11.5833 139.719 12.0341 139.401 12.625C139.09 13.2159 138.935 13.9318 138.935 14.7727ZM160.784 25.3523C159.678 25.3523 158.682 25.1553 157.795 24.7614C156.916 24.3598 156.219 23.7689 155.704 22.9886C155.197 22.2083 154.943 21.2462 154.943 20.1023C154.943 19.1174 155.125 18.303 155.488 17.6591C155.852 17.0152 156.348 16.5 156.977 16.1136C157.606 15.7273 158.314 15.4356 159.102 15.2386C159.898 15.0341 160.719 14.8864 161.568 14.7955C162.591 14.6894 163.42 14.5947 164.057 14.5114C164.693 14.4205 165.155 14.2841 165.443 14.1023C165.738 13.9129 165.886 13.6212 165.886 13.2273V13.1591C165.886 12.303 165.632 11.6402 165.125 11.1705C164.617 10.7008 163.886 10.4659 162.932 10.4659C161.924 10.4659 161.125 10.6856 160.534 11.125C159.951 11.5644 159.557 12.0833 159.352 12.6818L155.511 12.1364C155.814 11.0758 156.314 10.1894 157.011 9.47727C157.708 8.75757 158.56 8.2197 159.568 7.86364C160.576 7.5 161.689 7.31818 162.909 7.31818C163.75 7.31818 164.587 7.41667 165.42 7.61364C166.254 7.81061 167.015 8.13636 167.704 8.59091C168.394 9.03788 168.947 9.64773 169.363 10.4205C169.788 11.1932 170 12.1591 170 13.3182V25H166.045V22.6023H165.909C165.659 23.0871 165.307 23.5417 164.852 23.9659C164.405 24.3826 163.841 24.7197 163.159 24.9773C162.485 25.2273 161.693 25.3523 160.784 25.3523ZM161.852 22.3295C162.678 22.3295 163.394 22.1667 164 21.8409C164.606 21.5076 165.072 21.0682 165.398 20.5227C165.731 19.9773 165.898 19.3826 165.898 18.7386V16.6818C165.769 16.7879 165.549 16.8864 165.238 16.9773C164.935 17.0682 164.594 17.1477 164.216 17.2159C163.837 17.2841 163.462 17.3447 163.091 17.3977C162.719 17.4508 162.398 17.4962 162.125 17.5341C161.511 17.6174 160.962 17.7538 160.477 17.9432C159.992 18.1326 159.61 18.3977 159.329 18.7386C159.049 19.072 158.909 19.5038 158.909 20.0341C158.909 20.7917 159.185 21.3636 159.738 21.75C160.291 22.1364 160.996 22.3295 161.852 22.3295ZM194.454 0.636362L186.954 28.5H183.351L190.851 0.636362H194.454ZM214.939 17.3977L199.394 24.5795V20.5455L210.439 15.8068L210.314 16.0227V15.5L210.439 15.7159L199.394 10.9773V6.94318L214.939 14.125V17.3977Z" fill="url(#paint0_linear_17_3)"/>
<defs>
<linearGradient id="paint0_linear_17_3" x1="-20.2166" y1="12.8276" x2="278.807" y2="12.8276" gradientUnits="userSpaceOnUse">
<stop stop-color="#6097E9"/>
<stop offset="1" stop-color="#573996"/>
</linearGradient>
</defs>
</svg>
